<mxfile host="app.diagrams.net" modified="2020-12-01T15:55:58.109Z" agent="5.0 (X11)" etag="uuDWEH5TQucum3udKMZo" version="13.10.4" type="github">
  <diagram id="7EAW4ootcDm5CqngT8Yh" name="Page-1">
    <mxGraphModel dx="868" dy="492" grid="1" gridSize="10" guides="1" tooltips="1" connect="1" arrows="1" fold="1" page="1" pageScale="1" pageWidth="827" pageHeight="1169" math="0" shadow="0">
      <root>
        <mxCell id="0" />
        <mxCell id="1" parent="0" />
        <mxCell id="TkC-35oeOG2-YidgbLcR-9" style="edgeStyle=orthogonalEdgeStyle;rounded=0;orthogonalLoop=1;jettySize=auto;html=1;exitX=0.5;exitY=1;exitDx=0;exitDy=0;exitPerimeter=0;" edge="1" parent="1" source="TkC-35oeOG2-YidgbLcR-1" target="TkC-35oeOG2-YidgbLcR-2">
          <mxGeometry relative="1" as="geometry" />
        </mxCell>
        <mxCell id="TkC-35oeOG2-YidgbLcR-16" style="edgeStyle=orthogonalEdgeStyle;rounded=0;orthogonalLoop=1;jettySize=auto;html=1;exitX=1;exitY=0.5;exitDx=0;exitDy=0;exitPerimeter=0;entryX=0;entryY=0.5;entryDx=0;entryDy=0;entryPerimeter=0;endArrow=none;endFill=0;dashed=1;" edge="1" parent="1" source="TkC-35oeOG2-YidgbLcR-1" target="TkC-35oeOG2-YidgbLcR-15">
          <mxGeometry relative="1" as="geometry" />
        </mxCell>
        <mxCell id="TkC-35oeOG2-YidgbLcR-1" value="compare_nums_for" style="strokeWidth=1;html=1;shape=mxgraph.flowchart.terminator;whiteSpace=wrap;" vertex="1" parent="1">
          <mxGeometry x="334" y="50" width="160" height="40" as="geometry" />
        </mxCell>
        <mxCell id="TkC-35oeOG2-YidgbLcR-8" style="edgeStyle=orthogonalEdgeStyle;rounded=0;orthogonalLoop=1;jettySize=auto;html=1;exitX=0.5;exitY=1;exitDx=0;exitDy=0;entryX=0.5;entryY=0;entryDx=0;entryDy=0;" edge="1" parent="1" source="TkC-35oeOG2-YidgbLcR-2" target="TkC-35oeOG2-YidgbLcR-3">
          <mxGeometry relative="1" as="geometry" />
        </mxCell>
        <mxCell id="TkC-35oeOG2-YidgbLcR-2" value="result_for = -1" style="shape=parallelogram;perimeter=parallelogramPerimeter;whiteSpace=wrap;html=1;fixedSize=1;strokeWidth=1;" vertex="1" parent="1">
          <mxGeometry x="334" y="110" width="160" height="40" as="geometry" />
        </mxCell>
        <mxCell id="TkC-35oeOG2-YidgbLcR-7" style="edgeStyle=orthogonalEdgeStyle;rounded=0;orthogonalLoop=1;jettySize=auto;html=1;exitX=0;exitY=0.5;exitDx=0;exitDy=0;entryX=0.5;entryY=0;entryDx=0;entryDy=0;" edge="1" parent="1" source="TkC-35oeOG2-YidgbLcR-3" target="TkC-35oeOG2-YidgbLcR-5">
          <mxGeometry relative="1" as="geometry" />
        </mxCell>
        <mxCell id="TkC-35oeOG2-YidgbLcR-10" style="edgeStyle=orthogonalEdgeStyle;rounded=0;orthogonalLoop=1;jettySize=auto;html=1;entryX=0.5;entryY=0;entryDx=0;entryDy=0;" edge="1" parent="1" source="TkC-35oeOG2-YidgbLcR-3" target="TkC-35oeOG2-YidgbLcR-4">
          <mxGeometry relative="1" as="geometry" />
        </mxCell>
        <mxCell id="TkC-35oeOG2-YidgbLcR-3" value="sum_half1 = sum_half2" style="rhombus;whiteSpace=wrap;html=1;strokeWidth=1;" vertex="1" parent="1">
          <mxGeometry x="334" y="170" width="160" height="80" as="geometry" />
        </mxCell>
        <mxCell id="TkC-35oeOG2-YidgbLcR-14" style="edgeStyle=orthogonalEdgeStyle;rounded=0;orthogonalLoop=1;jettySize=auto;html=1;exitX=0.5;exitY=1;exitDx=0;exitDy=0;entryX=0.5;entryY=0;entryDx=0;entryDy=0;entryPerimeter=0;" edge="1" parent="1" source="TkC-35oeOG2-YidgbLcR-4" target="TkC-35oeOG2-YidgbLcR-11">
          <mxGeometry relative="1" as="geometry">
            <mxPoint x="410" y="330" as="targetPoint" />
          </mxGeometry>
        </mxCell>
        <mxCell id="TkC-35oeOG2-YidgbLcR-4" value="result_for = 1" style="rounded=0;whiteSpace=wrap;html=1;strokeWidth=1;" vertex="1" parent="1">
          <mxGeometry x="500" y="240" width="160" height="40" as="geometry" />
        </mxCell>
        <mxCell id="TkC-35oeOG2-YidgbLcR-13" style="edgeStyle=orthogonalEdgeStyle;rounded=0;orthogonalLoop=1;jettySize=auto;html=1;exitX=0.5;exitY=1;exitDx=0;exitDy=0;entryX=0.5;entryY=0;entryDx=0;entryDy=0;entryPerimeter=0;" edge="1" parent="1" source="TkC-35oeOG2-YidgbLcR-5" target="TkC-35oeOG2-YidgbLcR-11">
          <mxGeometry relative="1" as="geometry" />
        </mxCell>
        <mxCell id="TkC-35oeOG2-YidgbLcR-5" value="result_for = -1" style="rounded=0;whiteSpace=wrap;html=1;strokeWidth=1;" vertex="1" parent="1">
          <mxGeometry x="190" y="240" width="160" height="40" as="geometry" />
        </mxCell>
        <mxCell id="TkC-35oeOG2-YidgbLcR-18" style="edgeStyle=orthogonalEdgeStyle;rounded=0;orthogonalLoop=1;jettySize=auto;html=1;exitX=1;exitY=0.5;exitDx=0;exitDy=0;exitPerimeter=0;entryX=0;entryY=0.5;entryDx=0;entryDy=0;entryPerimeter=0;dashed=1;endArrow=none;endFill=0;" edge="1" parent="1" source="TkC-35oeOG2-YidgbLcR-11" target="TkC-35oeOG2-YidgbLcR-17">
          <mxGeometry relative="1" as="geometry" />
        </mxCell>
        <mxCell id="TkC-35oeOG2-YidgbLcR-11" value="Кінець" style="strokeWidth=1;html=1;shape=mxgraph.flowchart.terminator;whiteSpace=wrap;" vertex="1" parent="1">
          <mxGeometry x="334" y="330" width="160" height="40" as="geometry" />
        </mxCell>
        <mxCell id="TkC-35oeOG2-YidgbLcR-15" value="&lt;div&gt;Функція &lt;br&gt;&lt;/div&gt;&lt;div&gt;приймає&lt;/div&gt;&lt;div&gt;sum_half1 &lt;br&gt;&lt;/div&gt;&lt;div&gt;та &lt;br&gt;&lt;/div&gt;&lt;div&gt;sum_half2&lt;/div&gt;" style="strokeWidth=1;html=1;shape=mxgraph.flowchart.annotation_1;align=left;pointerEvents=1;" vertex="1" parent="1">
          <mxGeometry x="570" y="30" width="50" height="80" as="geometry" />
        </mxCell>
        <mxCell id="TkC-35oeOG2-YidgbLcR-17" value="&lt;div&gt;Функція &lt;br&gt;&lt;/div&gt;&lt;div&gt;повертає&lt;/div&gt;&lt;div&gt;result_for&lt;br&gt;&lt;/div&gt;" style="strokeWidth=1;html=1;shape=mxgraph.flowchart.annotation_1;align=left;pointerEvents=1;" vertex="1" parent="1">
          <mxGeometry x="570" y="310" width="50" height="80" as="geometry" />
        </mxCell>
      </root>
    </mxGraphModel>
  </diagram>
</mxfile>
